# xmcd
#
# Track frame offsets:
#	182
#	14885
#	29802
#	41447
#	54360
#	61750
#	71790
#	84690
#	92465
#	102000
#	111815
#	122232
#	133035
#	144602
#	157342
#	176135
#
# Disc length: 2550 seconds
#
# Revision: 3
# Processed by: cddbd v1.5.2PL0 Copyright (c) Steve Scherf et al.
# Submitted via: audiograbber 1.83.01
#
DISCID=ea09f410
DTITLE=Artistes Divers - Country Greats
DYEAR=1987
DGENRE=Country
TTITLE0=Willie Nelson - Will you remember mine
TTITLE1=Willie Nelson - And so will you my love
TTITLE2=George Jones - I can't change overnight
TTITLE3=George Jones - (She's) just a girl I used to know
TTITLE4=Conway Twitty - Treat me mean, treat me cruel
TTITLE5=Conway Twitty - Where I stand
TTITLE6=Faron Young - I fall to pieces
TTITLE7=Faron Young - Your cheatin'heart
TTITLE8=Ray Pillow - Livin' in the sunshine of your love
TTITLE9=Ray Pillow - We're together again
TTITLE10=Carl Perkins - Daddy sang bass
TTITLE11=Carl Perkins - What am I living for
TTITLE12=Johnny Paycheck - I don't need to know that right now
TTITLE13=Johnny Paycheck - Georgia in a jug
TTITLE14=Blackwater Band - Lighthouse bar
TTITLE15=Blackwater Band - Airport song
EXTD=
EXTT0=
EXTT1=
EXTT2=
EXTT3=
EXTT4=
EXTT5=
EXTT6=
EXTT7=
EXTT8=
EXTT9=
EXTT10=
EXTT11=
EXTT12=
EXTT13=
EXTT14=
EXTT15=
PLAYORDER=
